# xmcd
#
# Track frame offsets:
#	150
#	15565
#	27811
#	40294
#	57262
#	69961
#	80471
#	91435
#	107086
#	119532
#	133857
#
# Disc length: 1948 seconds
# Revision: 0
# Processed by: cddbd v1.5.2PL0 Copyright (c) Steve Scherf et al.
# Submitted via: dBpowerAMP V12.0
#
DISCID=8d079a0b
DTITLE=Various Artist - The Mandolin Chronicles
DYEAR=2012
DGENRE=Country
TTITLE0=Alan Bibey and Wayne Benson - Owensboro Train
TTITLE1=Alan Bibey and Wayne Benson - Sweet Dixie
TTITLE2=Alan Bibey and Wayne Benson - Black Friday
TTITLE3=Alan Bibey and Wayne Benson - Waltz for Pamela
TTITLE4=Alan Bibey and Wayne Benson - Wintergrass
TTITLE5=Alan Bibey and Wayne Benson feat. Russell Moore - Another Night
TTITLE6=Alan Bibey and Wayne Benson - Surfside
TTITLE7=Alan Bibey and Wayne Benson - Pilgrim's Knob
TTITLE8=Alan Bibey and Wayne Benson - Now's the Time
TTITLE9=Alan Bibey and Wayne Benson - Wilkes County Breakdown
TTITLE10=Alan Bibey and Wayne Benson - Crazy Creek
EXTD=
EXTT0=
EXTT1=
EXTT2=
EXTT3=
EXTT4=
EXTT5=
EXTT6=
EXTT7=
EXTT8=
EXTT9=
EXTT10=
PLAYORDER=
